dummy_motion.mot
nRows=30
nColumns=17

name dummy_motion.mot
datacolumns 17
datarows 30
range 25.0100000000 25.3000000000
endheader
time	first_body_list	first_body_rotation	first_body_tilt	first_body_tx	first_body_ty	first_body_tz	subtalar_angle_l	ankle_angle_l	knee_angle_l	hip_flexion_l	hip_adduction_l	hip_rotation_l	lumbar_extension	lumbar_bending	lumbar_rotation	mtp_angle_l
       25.0100000000	        0.0000000000	        0.0000000000	        0.0000000000	        0.0000000000	        0.0000000000	        0.0000000000	        0.0000000000	       -1.9823118524	        3.0725632889	      -43.1780191554	       39.8266691032	      -33.7562565150	       97.8192260236	      -31.9305446669	        7.4182769427	        0.0000000000	
       25.0200000000	        0.0000000000	        0.0000000000	        0.0000000000	        0.0000000000	        0.0000000000	        0.0000000000	        0.0000000000	       41.7613290946	      -77.3836707236	       73.2927024401	        7.8424334897	        9.2803802708	      -69.6513381029	       21.5900097569	      -27.0612643446	        0.0000000000	
       25.0300000000	        0.0000000000	        0.0000000000	        0.0000000000	        0.0000000000	        0.0000000000	        0.0000000000	        0.0000000000	       40.2732560699	        8.1706696687	       67.6861172274	      -33.2923743112	        7.2849742341	      -50.4818786213	       -2.4755821000	      -13.4123446111	        0.0000000000	
       25.0400000000	        0.0000000000	        0.0000000000	        0.0000000000	        0.0000000000	        0.0000000000	        0.0000000000	        0.0000000000	      -39.3623324803	      -21.8020603217	      107.9558414309	      -23.4861554347	      -18.1275910534	      112.5312425383	       -1.2789444777	       -1.5821292473	        0.0000000000	
       25.0500000000	        0.0000000000	        0.0000000000	        0.0000000000	        0.0000000000	        0.0000000000	        0.0000000000	        0.0000000000	       14.4897489167	      -72.0806976963	       14.5139842880	       37.5997718778	      -13.8078000021	      -52.6829659800	      -36.6549423363	      -20.8468373331	        0.0000000000	
       25.0600000000	        0.0000000000	        0.0000000000	        0.0000000000	        0.0000000000	        0.0000000000	        0.0000000000	        0.0000000000	       28.7167816758	        8.5710492114	        6.1917899493	       27.1347961289	      -12.1498008294	       -4.2344992545	        5.0146874941	      -19.6565070512	        0.0000000000	
       25.0700000000	        0.0000000000	        0.0000000000	        0.0000000000	        0.0000000000	        0.0000000000	        0.0000000000	        0.0000000000	       16.2310091369	     -103.6195034651	      -60.4299925842	       39.6699193649	       22.4045669637	      -33.8360959432	      -35.9926620130	       30.6479166853	        0.0000000000	
       25.0800000000	        0.0000000000	        0.0000000000	        0.0000000000	        0.0000000000	        0.0000000000	        0.0000000000	        0.0000000000	       -4.6318027993	      -87.7785470390	       15.7797035651	       29.9665361218	      -23.8799396452	       83.2888356347	        3.0883432168	        3.5072548974	        0.0000000000	
       25.0900000000	        0.0000000000	        0.0000000000	        0.0000000000	        0.0000000000	        0.0000000000	        0.0000000000	        0.0000000000	      -18.0570034598	      -86.5276552302	       91.4907548993	       26.4485986059	       10.5944489529	       91.9366309704	        7.0125888001	      -19.3120188473	        0.0000000000	
       25.1000000000	        0.0000000000	        0.0000000000	        0.0000000000	        0.0000000000	        0.0000000000	        0.0000000000	        0.0000000000	       18.8428468891	        5.5030458259	      109.4052877934	       28.7064056769	        1.4521681108	       34.2150547381	       22.1509078136	       17.6998786293	        0.0000000000	
       25.1100000000	        0.0000000000	        0.0000000000	        0.0000000000	        0.0000000000	        0.0000000000	        0.0000000000	        0.0000000000	       27.1898521991	        2.1113610320	       60.7773927875	      -34.6136912680	       -9.9834964400	      -45.9179173053	      -13.2165191671	       -8.0445762482	        0.0000000000	
       25.1200000000	        0.0000000000	        0.0000000000	        0.0000000000	        0.0000000000	        0.0000000000	        0.0000000000	        0.0000000000	       41.4452702045	      -39.5304492394	       71.5624434229	       18.8944203195	      -16.1780054264	       32.8407175356	       16.4352457441	       17.7406592962	        0.0000000000	
       25.1300000000	        0.0000000000	        0.0000000000	        0.0000000000	        0.0000000000	        0.0000000000	        0.0000000000	        0.0000000000	        7.4799382399	       -1.9562686336	      114.4708072194	       24.0809771688	      -12.9484074814	      -59.8486865683	      -18.9730564415	      -15.5047149218	        0.0000000000	
       25.1400000000	        0.0000000000	        0.0000000000	        0.0000000000	        0.0000000000	        0.0000000000	        0.0000000000	        0.0000000000	      -46.3719452745	     -104.0028724741	      -58.7273105939	       35.0159147110	       18.2505369258	       88.4173904373	      -37.9754428424	       28.3465297780	        0.0000000000	
       25.1500000000	        0.0000000000	        0.0000000000	        0.0000000000	        0.0000000000	        0.0000000000	        0.0000000000	        0.0000000000	      -51.9348883143	      -49.5636935239	      -33.6174534594	      -35.4831772187	       31.5306660174	       10.1135210203	       -0.2257825488	       24.2698172355	        0.0000000000	
       25.1600000000	        0.0000000000	        0.0000000000	        0.0000000000	        0.0000000000	        0.0000000000	        0.0000000000	        0.0000000000	        9.9075724233	      -67.2305171102	        0.4137981592	      -18.8068044074	       29.9723731744	      113.6512238229	        1.6102413920	       24.0165294022	        0.0000000000	
       25.1700000000	        0.0000000000	        0.0000000000	        0.0000000000	        0.0000000000	        0.0000000000	        0.0000000000	        0.0000000000	      -25.9797294707	      -86.9173220615	       73.2385037340	       30.5551406077	      -18.8715750349	      -37.5324519185	       30.6154564177	        0.7841772792	        0.0000000000	
       25.1800000000	        0.0000000000	        0.0000000000	        0.0000000000	        0.0000000000	        0.0000000000	        0.0000000000	        0.0000000000	      -36.9246054686	      -83.7646450998	       98.9806274984	       30.4453471343	       21.1399242184	      105.2825715357	       -3.5002185980	       26.2802631698	        0.0000000000	
       25.1900000000	        0.0000000000	        0.0000000000	        0.0000000000	        0.0000000000	        0.0000000000	        0.0000000000	        0.0000000000	      -57.8643384957	        0.8355227540	       -6.3109434523	      -18.8465051349	       20.7537004386	      -27.6542265223	       22.6455365226	       22.8449734335	        0.0000000000	
       25.2000000000	        0.0000000000	        0.0000000000	        0.0000000000	        0.0000000000	        0.0000000000	        0.0000000000	        0.0000000000	       36.3143493168	     -117.2383192749	      109.6397013874	      -28.9794009840	       21.0193835220	       50.8094970039	       -4.5898286944	       21.7947972753	        0.0000000000	
       25.2100000000	        0.0000000000	        0.0000000000	        0.0000000000	        0.0000000000	        0.0000000000	        0.0000000000	        0.0000000000	       30.4321658798	      -13.8067393865	      -25.4593019062	      -31.6743980100	       -1.4132695429	       97.0787717467	       38.3170410600	       19.1579766671	        0.0000000000	
       25.2200000000	        0.0000000000	        0.0000000000	        0.0000000000	        0.0000000000	        0.0000000000	        0.0000000000	        0.0000000000	      -11.1172229049	      -42.4388720975	       46.3761101127	       20.7516515116	        1.5030391135	       -4.6708758167	        2.9678195837	      -17.4948442566	        0.0000000000	
       25.2300000000	        0.0000000000	        0.0000000000	        0.0000000000	        0.0000000000	        0.0000000000	        0.0000000000	        0.0000000000	       44.5831733342	      -30.8096150471	       27.2974598107	      -14.1595009635	       18.5048322994	        1.7850813761	       36.6450093960	       35.6716292692	        0.0000000000	
       25.2400000000	        0.0000000000	        0.0000000000	        0.0000000000	        0.0000000000	        0.0000000000	        0.0000000000	        0.0000000000	      -12.5279294493	      -26.1231538189	       19.1906990898	       27.9558882398	      -31.7949098668	       95.9270808346	       31.6113758834	       18.4723946312	        0.0000000000	
       25.2500000000	        0.0000000000	        0.0000000000	        0.0000000000	        0.0000000000	        0.0000000000	        0.0000000000	        0.0000000000	      -11.7458963290	      -67.1678002667	       -6.5958779667	        1.9947308175	      -12.1912130336	       86.8527067550	       23.2367997778	       24.3280430723	        0.0000000000	
       25.2600000000	        0.0000000000	        0.0000000000	        0.0000000000	        0.0000000000	        0.0000000000	        0.0000000000	        0.0000000000	      -22.9306165960	      -70.6866891385	      -54.1800801178	        7.3530624335	       37.6324009797	      -55.4349221484	       31.1243842127	      -17.2552736187	        0.0000000000	
       25.2700000000	        0.0000000000	        0.0000000000	        0.0000000000	        0.0000000000	        0.0000000000	        0.0000000000	        0.0000000000	       18.7677031223	      -43.5627898898	      109.9421566670	        3.3024656098	       23.2708505922	      -16.2056939126	        9.6264468827	        3.1348742887	        0.0000000000	
       25.2800000000	        0.0000000000	        0.0000000000	        0.0000000000	        0.0000000000	        0.0000000000	        0.0000000000	        0.0000000000	       40.5223244546	        2.2495958962	      -41.5671106281	        2.9307252884	       21.0263287289	      -59.1939206417	        0.2086534261	      -39.3591282472	        0.0000000000	
       25.2900000000	        0.0000000000	        0.0000000000	        0.0000000000	        0.0000000000	        0.0000000000	        0.0000000000	        0.0000000000	       43.5735797616	      -10.3366339794	      -31.3500119589	       17.8337903730	       18.2647609903	      112.2472544737	      -35.6196206146	      -23.4167289461	        0.0000000000	
       25.3000000000	        0.0000000000	        0.0000000000	        0.0000000000	        0.0000000000	        0.0000000000	        0.0000000000	        0.0000000000	      -23.9166356012	        3.1923776977	      -68.2480614460	       31.4532495050	       29.1665404222	      -40.9195165189	      -15.0262516947	       25.0811614157	        0.0000000000	
